M48
; DRILL file {KiCad 9.0.2} date 2025-05-28T22:42:45-0400
; FORMAT={-:-/ absolute / inch / decimal}
; #@! TF.CreationDate,2025-05-28T22:42:45-04:00
; #@! TF.GenerationSoftware,Kicad,Pcbnew,9.0.2
; #@! TF.FileFunction,Plated,1,4,PTH
FMAT,2
INCH
; #@! TA.AperFunction,Plated,PTH,ViaDrill
T1C0.0157
; #@! TA.AperFunction,Plated,PTH,ComponentDrill
T2C0.0319
; #@! TA.AperFunction,Plated,PTH,ComponentDrill
T3C0.0394
; #@! TA.AperFunction,Plated,PTH,ComponentDrill
T4C0.0433
; #@! TA.AperFunction,Plated,PTH,ComponentDrill
T5C0.0610
; #@! TA.AperFunction,Plated,PTH,ComponentDrill
T6C0.1063
%
G90
G05
T1
X4.685Y-4.6437
X4.8425Y-4.6831
X4.9409Y-4.3287
X4.9606Y-3.3839
X4.9606Y-3.7776
X5.0Y-4.3484
X5.1378Y-4.3484
X5.2362Y-4.3484
X5.2559Y-3.2067
X5.2559Y-3.3445
X5.2559Y-3.4823
X5.2559Y-3.6201
X5.2559Y-3.7579
X5.2559Y-3.8957
X5.2559Y-4.8209
X5.3346Y-4.3484
X5.4331Y-4.3484
X5.5315Y-4.3484
X5.6299Y-4.3484
X5.6496Y-4.8209
X5.8071Y-3.2067
X5.8071Y-3.3445
X5.8071Y-3.5413
X5.8071Y-3.7579
X5.8071Y-3.8957
X5.8071Y-4.8012
X6.0236Y-4.5059
X6.0236Y-4.5846
X6.3583Y-3.5413
X6.3583Y-3.7579
X6.3583Y-3.8957
X6.5748Y-4.8406
X6.7323Y-4.8406
X6.8701Y-4.8406
X6.9094Y-3.2067
X6.9094Y-3.3445
X6.9094Y-3.5413
X6.9094Y-3.7579
X6.9094Y-3.8957
T2
X4.8921Y-4.2657
X4.8921Y-4.5846
X4.9921Y-4.2657
X4.9921Y-4.5846
X5.0921Y-4.2657
X5.0921Y-4.5846
X5.1921Y-4.2657
X5.1921Y-4.5846
X5.2921Y-4.2657
X5.2921Y-4.5846
X5.3921Y-4.2657
X5.3921Y-4.5846
X5.4921Y-4.2657
X5.4921Y-4.5846
X5.5921Y-4.2657
X5.5921Y-4.5846
T3
X4.9358Y-2.8417
X4.9358Y-2.9417
X5.0358Y-2.8417
X5.0358Y-2.9417
X5.1358Y-2.8417
X5.1358Y-2.9417
X5.2358Y-2.8417
X5.2358Y-2.9417
X5.3358Y-2.8417
X5.3358Y-2.9417
X5.4358Y-2.8417
X5.4358Y-2.9417
X5.5358Y-2.8417
X5.5358Y-2.9417
X5.6358Y-2.8417
X5.6358Y-2.9417
X5.7358Y-2.8417
X5.7358Y-2.9417
X5.8358Y-2.8417
X5.8358Y-2.9417
X5.9358Y-2.8417
X5.9358Y-2.9417
X6.0358Y-2.8417
X6.0358Y-2.9417
X6.1358Y-2.8417
X6.1358Y-2.9417
X6.1567Y-4.4409
X6.1567Y-4.5409
X6.2358Y-2.8417
X6.2358Y-2.9417
X6.2567Y-4.4409
X6.2567Y-4.5409
X6.3358Y-2.8417
X6.3358Y-2.9417
X6.3567Y-4.4409
X6.3567Y-4.5409
X6.4358Y-2.8417
X6.4358Y-2.9417
X6.4567Y-4.4409
X6.4567Y-4.5409
X6.5358Y-2.8417
X6.5358Y-2.9417
X6.6358Y-2.8417
X6.6358Y-2.9417
X6.7358Y-2.8417
X6.7358Y-2.9417
X6.8358Y-2.8417
X6.8358Y-2.9417
X7.0276Y-4.4043
X7.0276Y-4.5043
X7.0276Y-4.6043
T4
X5.1575Y-3.1378
X5.1575Y-3.2756
X5.1575Y-3.4134
X5.1575Y-3.5512
X5.1575Y-3.689
X5.1575Y-3.8268
X5.1575Y-3.9646
X5.1575Y-4.1024
X5.3543Y-3.1378
X5.3543Y-3.2756
X5.3543Y-3.4134
X5.3543Y-3.5512
X5.3543Y-3.689
X5.3543Y-3.8268
X5.3543Y-3.9646
X5.3543Y-4.1024
X5.7087Y-3.1378
X5.7087Y-3.2756
X5.7087Y-3.4134
X5.7087Y-3.5512
X5.7087Y-3.689
X5.7087Y-3.8268
X5.7087Y-3.9646
X5.7087Y-4.1024
X5.9055Y-3.1378
X5.9055Y-3.2756
X5.9055Y-3.4134
X5.9055Y-3.5512
X5.9055Y-3.689
X5.9055Y-3.8268
X5.9055Y-3.9646
X5.9055Y-4.1024
X6.2598Y-3.1378
X6.2598Y-3.2756
X6.2598Y-3.4134
X6.2598Y-3.5512
X6.2598Y-3.689
X6.2598Y-3.8268
X6.2598Y-3.9646
X6.2598Y-4.1024
X6.4567Y-3.1378
X6.4567Y-3.2756
X6.4567Y-3.4134
X6.4567Y-3.5512
X6.4567Y-3.689
X6.4567Y-3.8268
X6.4567Y-3.9646
X6.4567Y-4.1024
X6.811Y-3.1378
X6.811Y-3.2756
X6.811Y-3.4134
X6.811Y-3.5512
X6.811Y-3.689
X6.811Y-3.8268
X6.811Y-3.9646
X6.811Y-4.1024
X7.0079Y-3.1378
X7.0079Y-3.2756
X7.0079Y-3.4134
X7.0079Y-3.5512
X7.0079Y-3.689
X7.0079Y-3.8268
X7.0079Y-3.9646
X7.0079Y-4.1024
T5
X4.7047Y-3.0689
X4.7047Y-3.2264
X4.7047Y-3.3839
X4.7047Y-3.5413
X4.7047Y-3.6988
X4.7047Y-3.8563
X4.7047Y-4.0138
X4.7047Y-4.1713
T6
X4.7441Y-2.8917
X4.7441Y-4.8209
X7.0276Y-2.8917
X7.0276Y-4.8209
M30
