%TF.GenerationSoftware,KiCad,Pcbnew,9.0.2*%
%TF.CreationDate,2025-05-28T21:37:55-04:00*%
%TF.ProjectId,DAQHat Rev A,44415148-6174-4205-9265-7620412e6b69,rev?*%
%TF.SameCoordinates,Original*%
%TF.FileFunction,Soldermask,Top*%
%TF.FilePolarity,Negative*%
%FSLAX46Y46*%
G04 Gerber Fmt 4.6, Leading zero omitted, Abs format (unit mm)*
G04 Created by KiCad (PCBNEW 9.0.2) date 2025-05-28 21:37:55*
%MOMM*%
%LPD*%
G01*
G04 APERTURE LIST*
G04 Aperture macros list*
%AMRoundRect*
0 Rectangle with rounded corners*
0 $1 Rounding radius*
0 $2 $3 $4 $5 $6 $7 $8 $9 X,Y pos of 4 corners*
0 Add a 4 corners polygon primitive as box body*
4,1,4,$2,$3,$4,$5,$6,$7,$8,$9,$2,$3,0*
0 Add four circle primitives for the rounded corners*
1,1,$1+$1,$2,$3*
1,1,$1+$1,$4,$5*
1,1,$1+$1,$6,$7*
1,1,$1+$1,$8,$9*
0 Add four rect primitives between the rounded corners*
20,1,$1+$1,$2,$3,$4,$5,0*
20,1,$1+$1,$4,$5,$6,$7,0*
20,1,$1+$1,$6,$7,$8,$9,0*
20,1,$1+$1,$8,$9,$2,$3,0*%
G04 Aperture macros list end*
%ADD10C,4.601600*%
%ADD11RoundRect,0.050800X-0.850000X-0.850000X0.850000X-0.850000X0.850000X0.850000X-0.850000X0.850000X0*%
%ADD12O,1.801600X1.801600*%
%ADD13RoundRect,0.050800X-0.850000X0.850000X-0.850000X-0.850000X0.850000X-0.850000X0.850000X0.850000X0*%
%ADD14RoundRect,0.259960X-1.065840X-1.065840X1.065840X-1.065840X1.065840X1.065840X-1.065840X1.065840X0*%
%ADD15C,1.854000*%
%ADD16RoundRect,0.102000X0.610000X-0.610000X0.610000X0.610000X-0.610000X0.610000X-0.610000X-0.610000X0*%
%ADD17C,1.424000*%
G04 APERTURE END LIST*
D10*
%TO.C,H1*%
X178500000Y-73450000D03*
%TD*%
%TO.C,H2*%
X178500000Y-122450000D03*
%TD*%
%TO.C,H3*%
X120500000Y-122450000D03*
%TD*%
%TO.C,H4*%
X120500000Y-73450000D03*
%TD*%
D11*
%TO.C,J1*%
X178500000Y-111870000D03*
D12*
X178500000Y-114410000D03*
X178500000Y-116950000D03*
%TD*%
D13*
%TO.C,J2*%
X125370000Y-74720000D03*
D12*
X125370000Y-72180000D03*
X127910000Y-74720000D03*
X127910000Y-72180000D03*
X130450000Y-74720000D03*
X130450000Y-72180000D03*
X132990000Y-74720000D03*
X132990000Y-72180000D03*
X135530000Y-74720000D03*
X135530000Y-72180000D03*
X138070000Y-74720000D03*
X138070000Y-72180000D03*
X140610000Y-74720000D03*
X140610000Y-72180000D03*
X143150000Y-74720000D03*
X143150000Y-72180000D03*
X145690000Y-74720000D03*
X145690000Y-72180000D03*
X148230000Y-74720000D03*
X148230000Y-72180000D03*
X150770000Y-74720000D03*
X150770000Y-72180000D03*
X153310000Y-74720000D03*
X153310000Y-72180000D03*
X155850000Y-74720000D03*
X155850000Y-72180000D03*
X158390000Y-74720000D03*
X158390000Y-72180000D03*
X160930000Y-74720000D03*
X160930000Y-72180000D03*
X163470000Y-74720000D03*
X163470000Y-72180000D03*
X166010000Y-74720000D03*
X166010000Y-72180000D03*
X168550000Y-74720000D03*
X168550000Y-72180000D03*
X171090000Y-74720000D03*
X171090000Y-72180000D03*
X173630000Y-74720000D03*
X173630000Y-72180000D03*
%TD*%
D14*
%TO.C,J3*%
X119500000Y-77950000D03*
%TD*%
D13*
%TO.C,J4*%
X164000000Y-112800000D03*
D12*
X164000000Y-115340000D03*
X161460000Y-112800000D03*
X161460000Y-115340000D03*
X158920000Y-112800000D03*
X158920000Y-115340000D03*
X156380000Y-112800000D03*
X156380000Y-115340000D03*
%TD*%
D14*
%TO.C,J5*%
X119500000Y-81950000D03*
%TD*%
%TO.C,J6*%
X119500000Y-85950000D03*
%TD*%
%TO.C,J7*%
X119500000Y-89950000D03*
%TD*%
%TO.C,J8*%
X119500000Y-93950000D03*
%TD*%
%TO.C,J9*%
X119500000Y-97950000D03*
%TD*%
%TO.C,J10*%
X119500000Y-101950000D03*
%TD*%
D15*
%TO.C,J11*%
X136000000Y-79700000D03*
X131000000Y-79700000D03*
X136000000Y-83200000D03*
X131000000Y-83200000D03*
X136000000Y-86700000D03*
X131000000Y-86700000D03*
X136000000Y-90200000D03*
X131000000Y-90200000D03*
X136000000Y-93700000D03*
X131000000Y-93700000D03*
X136000000Y-97200000D03*
X131000000Y-97200000D03*
X136000000Y-100700000D03*
X131000000Y-100700000D03*
X136000000Y-104200000D03*
X131000000Y-104200000D03*
%TD*%
D14*
%TO.C,J15*%
X119500000Y-105950000D03*
%TD*%
D16*
%TO.C,S1*%
X124260000Y-116450000D03*
D17*
X124260000Y-108350000D03*
X126800000Y-116450000D03*
X126800000Y-108350000D03*
X129340000Y-116450000D03*
X129340000Y-108350000D03*
X131880000Y-116450000D03*
X131880000Y-108350000D03*
X134420000Y-116450000D03*
X134420000Y-108350000D03*
X136960000Y-116450000D03*
X136960000Y-108350000D03*
X139500000Y-116450000D03*
X139500000Y-108350000D03*
X142040000Y-116450000D03*
X142040000Y-108350000D03*
%TD*%
D15*
%TO.C,J14*%
X173000000Y-104200000D03*
X178000000Y-104200000D03*
X173000000Y-100700000D03*
X178000000Y-100700000D03*
X173000000Y-97200000D03*
X178000000Y-97200000D03*
X173000000Y-93700000D03*
X178000000Y-93700000D03*
X173000000Y-90200000D03*
X178000000Y-90200000D03*
X173000000Y-86700000D03*
X178000000Y-86700000D03*
X173000000Y-83200000D03*
X178000000Y-83200000D03*
X173000000Y-79700000D03*
X178000000Y-79700000D03*
%TD*%
%TO.C,J13*%
X159000000Y-104200000D03*
X164000000Y-104200000D03*
X159000000Y-100700000D03*
X164000000Y-100700000D03*
X159000000Y-97200000D03*
X164000000Y-97200000D03*
X159000000Y-93700000D03*
X164000000Y-93700000D03*
X159000000Y-90200000D03*
X164000000Y-90200000D03*
X159000000Y-86700000D03*
X164000000Y-86700000D03*
X159000000Y-83200000D03*
X164000000Y-83200000D03*
X159000000Y-79700000D03*
X164000000Y-79700000D03*
%TD*%
%TO.C,J12*%
X145000000Y-104200000D03*
X150000000Y-104200000D03*
X145000000Y-100700000D03*
X150000000Y-100700000D03*
X145000000Y-97200000D03*
X150000000Y-97200000D03*
X145000000Y-93700000D03*
X150000000Y-93700000D03*
X145000000Y-90200000D03*
X150000000Y-90200000D03*
X145000000Y-86700000D03*
X150000000Y-86700000D03*
X145000000Y-83200000D03*
X150000000Y-83200000D03*
X145000000Y-79700000D03*
X150000000Y-79700000D03*
%TD*%
M02*
