%TF.GenerationSoftware,KiCad,Pcbnew,9.0.2*%
%TF.CreationDate,2025-05-28T21:37:55-04:00*%
%TF.ProjectId,DAQHat Rev A,44415148-6174-4205-9265-7620412e6b69,rev?*%
%TF.SameCoordinates,Original*%
%TF.FileFunction,Copper,L2,Inr*%
%TF.FilePolarity,Positive*%
%FSLAX46Y46*%
G04 Gerber Fmt 4.6, Leading zero omitted, Abs format (unit mm)*
G04 Created by KiCad (PCBNEW 9.0.2) date 2025-05-28 21:37:55*
%MOMM*%
%LPD*%
G01*
G04 APERTURE LIST*
G04 Aperture macros list*
%AMRoundRect*
0 Rectangle with rounded corners*
0 $1 Rounding radius*
0 $2 $3 $4 $5 $6 $7 $8 $9 X,Y pos of 4 corners*
0 Add a 4 corners polygon primitive as box body*
4,1,4,$2,$3,$4,$5,$6,$7,$8,$9,$2,$3,0*
0 Add four circle primitives for the rounded corners*
1,1,$1+$1,$2,$3*
1,1,$1+$1,$4,$5*
1,1,$1+$1,$6,$7*
1,1,$1+$1,$8,$9*
0 Add four rect primitives between the rounded corners*
20,1,$1+$1,$2,$3,$4,$5,0*
20,1,$1+$1,$4,$5,$6,$7,0*
20,1,$1+$1,$6,$7,$8,$9,0*
20,1,$1+$1,$8,$9,$2,$3,0*%
G04 Aperture macros list end*
%TA.AperFunction,ComponentPad*%
%ADD10C,4.500000*%
%TD*%
%TA.AperFunction,ComponentPad*%
%ADD11R,1.700000X1.700000*%
%TD*%
%TA.AperFunction,ComponentPad*%
%ADD12O,1.700000X1.700000*%
%TD*%
%TA.AperFunction,ComponentPad*%
%ADD13RoundRect,0.249999X-1.025001X-1.025001X1.025001X-1.025001X1.025001X1.025001X-1.025001X1.025001X0*%
%TD*%
%TA.AperFunction,ComponentPad*%
%ADD14C,1.650000*%
%TD*%
%TA.AperFunction,ComponentPad*%
%ADD15R,1.220000X1.220000*%
%TD*%
%TA.AperFunction,ComponentPad*%
%ADD16C,1.220000*%
%TD*%
%TA.AperFunction,ViaPad*%
%ADD17C,0.800000*%
%TD*%
G04 APERTURE END LIST*
D10*
%TO.N,N/C*%
%TO.C,H1*%
X178500000Y-73450000D03*
%TD*%
%TO.N,N/C*%
%TO.C,H2*%
X178500000Y-122450000D03*
%TD*%
%TO.N,N/C*%
%TO.C,H3*%
X120500000Y-122450000D03*
%TD*%
%TO.N,N/C*%
%TO.C,H4*%
X120500000Y-73450000D03*
%TD*%
D11*
%TO.N,+5V*%
%TO.C,J1*%
X178500000Y-111870000D03*
D12*
%TO.N,GND*%
X178500000Y-114410000D03*
%TO.N,+12V*%
X178500000Y-116950000D03*
%TD*%
D11*
%TO.N,+3V3*%
%TO.C,J2*%
X125370000Y-74720000D03*
D12*
%TO.N,+5V*%
X125370000Y-72180000D03*
%TO.N,unconnected-(J2-Pin_3-Pad3)*%
X127910000Y-74720000D03*
%TO.N,+5V*%
X127910000Y-72180000D03*
%TO.N,unconnected-(J2-Pin_5-Pad5)*%
X130450000Y-74720000D03*
%TO.N,GND*%
X130450000Y-72180000D03*
%TO.N,unconnected-(J2-Pin_7-Pad7)*%
X132990000Y-74720000D03*
%TO.N,unconnected-(J2-Pin_8-Pad8)*%
X132990000Y-72180000D03*
%TO.N,GND*%
X135530000Y-74720000D03*
%TO.N,unconnected-(J2-Pin_10-Pad10)*%
X135530000Y-72180000D03*
%TO.N,unconnected-(J2-Pin_11-Pad11)*%
X138070000Y-74720000D03*
%TO.N,unconnected-(J2-Pin_12-Pad12)*%
X138070000Y-72180000D03*
%TO.N,unconnected-(J2-Pin_13-Pad13)*%
X140610000Y-74720000D03*
%TO.N,GND*%
X140610000Y-72180000D03*
%TO.N,unconnected-(J2-Pin_15-Pad15)*%
X143150000Y-74720000D03*
%TO.N,unconnected-(J2-Pin_16-Pad16)*%
X143150000Y-72180000D03*
%TO.N,unconnected-(J2-Pin_17-Pad17)*%
X145690000Y-74720000D03*
%TO.N,unconnected-(J2-Pin_18-Pad18)*%
X145690000Y-72180000D03*
%TO.N,unconnected-(J2-Pin_19-Pad19)*%
X148230000Y-74720000D03*
%TO.N,GND*%
X148230000Y-72180000D03*
%TO.N,unconnected-(J2-Pin_21-Pad21)*%
X150770000Y-74720000D03*
%TO.N,unconnected-(J2-Pin_22-Pad22)*%
X150770000Y-72180000D03*
%TO.N,unconnected-(J2-Pin_23-Pad23)*%
X153310000Y-74720000D03*
%TO.N,unconnected-(J2-Pin_24-Pad24)*%
X153310000Y-72180000D03*
%TO.N,GND*%
X155850000Y-74720000D03*
%TO.N,unconnected-(J2-Pin_26-Pad26)*%
X155850000Y-72180000D03*
%TO.N,unconnected-(J2-Pin_27-Pad27)*%
X158390000Y-74720000D03*
%TO.N,unconnected-(J2-Pin_28-Pad28)*%
X158390000Y-72180000D03*
%TO.N,unconnected-(J2-Pin_29-Pad29)*%
X160930000Y-74720000D03*
%TO.N,GND*%
X160930000Y-72180000D03*
%TO.N,unconnected-(J2-Pin_31-Pad31)*%
X163470000Y-74720000D03*
%TO.N,unconnected-(J2-Pin_32-Pad32)*%
X163470000Y-72180000D03*
%TO.N,unconnected-(J2-Pin_33-Pad33)*%
X166010000Y-74720000D03*
%TO.N,GND*%
X166010000Y-72180000D03*
%TO.N,unconnected-(J2-Pin_35-Pad35)*%
X168550000Y-74720000D03*
%TO.N,unconnected-(J2-Pin_36-Pad36)*%
X168550000Y-72180000D03*
%TO.N,unconnected-(J2-Pin_37-Pad37)*%
X171090000Y-74720000D03*
%TO.N,unconnected-(J2-Pin_38-Pad38)*%
X171090000Y-72180000D03*
%TO.N,GND*%
X173630000Y-74720000D03*
%TO.N,unconnected-(J2-Pin_40-Pad40)*%
X173630000Y-72180000D03*
%TD*%
D13*
%TO.N,/CH0*%
%TO.C,J3*%
X119500000Y-77950000D03*
%TD*%
D11*
%TO.N,GND*%
%TO.C,J4*%
X164000000Y-112800000D03*
D12*
%TO.N,/SCL*%
X164000000Y-115340000D03*
%TO.N,+5V*%
X161460000Y-112800000D03*
%TO.N,/SDA*%
X161460000Y-115340000D03*
%TO.N,+5V*%
X158920000Y-112800000D03*
%TO.N,/3V3*%
X158920000Y-115340000D03*
%TO.N,GND*%
X156380000Y-112800000D03*
X156380000Y-115340000D03*
%TD*%
D13*
%TO.N,/CH1*%
%TO.C,J5*%
X119500000Y-81950000D03*
%TD*%
%TO.N,/CH2*%
%TO.C,J6*%
X119500000Y-85950000D03*
%TD*%
%TO.N,/CH3*%
%TO.C,J7*%
X119500000Y-89950000D03*
%TD*%
%TO.N,/CH4*%
%TO.C,J8*%
X119500000Y-93950000D03*
%TD*%
%TO.N,/CH5*%
%TO.C,J9*%
X119500000Y-97950000D03*
%TD*%
%TO.N,/CH6*%
%TO.C,J10*%
X119500000Y-101950000D03*
%TD*%
D14*
%TO.N,+12V*%
%TO.C,J11*%
X136000000Y-79700000D03*
X131000000Y-79700000D03*
%TO.N,/CH0_Vin*%
X136000000Y-83200000D03*
X131000000Y-83200000D03*
%TO.N,/CH0*%
X136000000Y-86700000D03*
X131000000Y-86700000D03*
%TO.N,GND*%
X136000000Y-90200000D03*
X131000000Y-90200000D03*
%TO.N,+12V*%
X136000000Y-93700000D03*
X131000000Y-93700000D03*
%TO.N,/CH1_Vin*%
X136000000Y-97200000D03*
X131000000Y-97200000D03*
%TO.N,/CH1*%
X136000000Y-100700000D03*
X131000000Y-100700000D03*
%TO.N,GND*%
X136000000Y-104200000D03*
X131000000Y-104200000D03*
%TD*%
D13*
%TO.N,/CH7*%
%TO.C,J15*%
X119500000Y-105950000D03*
%TD*%
D15*
%TO.N,Net-(R1-Pad1)*%
%TO.C,S1*%
X124260000Y-116450000D03*
D16*
%TO.N,/CH0*%
X124260000Y-108350000D03*
%TO.N,Net-(R2-Pad1)*%
X126800000Y-116450000D03*
%TO.N,/CH1*%
X126800000Y-108350000D03*
%TO.N,Net-(R3-Pad1)*%
X129340000Y-116450000D03*
%TO.N,/CH2*%
X129340000Y-108350000D03*
%TO.N,Net-(R4-Pad1)*%
X131880000Y-116450000D03*
%TO.N,/CH3*%
X131880000Y-108350000D03*
%TO.N,Net-(R5-Pad1)*%
X134420000Y-116450000D03*
%TO.N,/CH4*%
X134420000Y-108350000D03*
%TO.N,Net-(R6-Pad1)*%
X136960000Y-116450000D03*
%TO.N,/CH5*%
X136960000Y-108350000D03*
%TO.N,Net-(R9-Pad1)*%
X139500000Y-116450000D03*
%TO.N,/CH6*%
X139500000Y-108350000D03*
%TO.N,Net-(R16-Pad1)*%
X142040000Y-116450000D03*
%TO.N,/CH7*%
X142040000Y-108350000D03*
%TD*%
D14*
%TO.N,GND*%
%TO.C,J14*%
X173000000Y-104200000D03*
X178000000Y-104200000D03*
%TO.N,/CH7*%
X173000000Y-100700000D03*
X178000000Y-100700000D03*
%TO.N,/CH7_Vin*%
X173000000Y-97200000D03*
X178000000Y-97200000D03*
%TO.N,+12V*%
X173000000Y-93700000D03*
X178000000Y-93700000D03*
%TO.N,GND*%
X173000000Y-90200000D03*
X178000000Y-90200000D03*
%TO.N,/CH6*%
X173000000Y-86700000D03*
X178000000Y-86700000D03*
%TO.N,/CH6_Vin*%
X173000000Y-83200000D03*
X178000000Y-83200000D03*
%TO.N,+12V*%
X173000000Y-79700000D03*
X178000000Y-79700000D03*
%TD*%
%TO.N,GND*%
%TO.C,J13*%
X159000000Y-104200000D03*
X164000000Y-104200000D03*
%TO.N,/CH5*%
X159000000Y-100700000D03*
X164000000Y-100700000D03*
%TO.N,/CH5_Vin*%
X159000000Y-97200000D03*
X164000000Y-97200000D03*
%TO.N,+12V*%
X159000000Y-93700000D03*
X164000000Y-93700000D03*
%TO.N,GND*%
X159000000Y-90200000D03*
X164000000Y-90200000D03*
%TO.N,/CH4*%
X159000000Y-86700000D03*
X164000000Y-86700000D03*
%TO.N,/CH4_Vin*%
X159000000Y-83200000D03*
X164000000Y-83200000D03*
%TO.N,+12V*%
X159000000Y-79700000D03*
X164000000Y-79700000D03*
%TD*%
%TO.N,GND*%
%TO.C,J12*%
X145000000Y-104200000D03*
X150000000Y-104200000D03*
%TO.N,/CH3*%
X145000000Y-100700000D03*
X150000000Y-100700000D03*
%TO.N,/CH3_Vin*%
X145000000Y-97200000D03*
X150000000Y-97200000D03*
%TO.N,+12V*%
X145000000Y-93700000D03*
X150000000Y-93700000D03*
%TO.N,GND*%
X145000000Y-90200000D03*
X150000000Y-90200000D03*
%TO.N,/CH2*%
X145000000Y-86700000D03*
X150000000Y-86700000D03*
%TO.N,/CH2_Vin*%
X145000000Y-83200000D03*
X150000000Y-83200000D03*
%TO.N,+12V*%
X145000000Y-79700000D03*
X150000000Y-79700000D03*
%TD*%
D17*
%TO.N,GND*%
X133500000Y-81450000D03*
X119000000Y-117950000D03*
X147500000Y-81450000D03*
X133000000Y-110450000D03*
X175500000Y-89950000D03*
X133500000Y-95450000D03*
X167000000Y-122950000D03*
X175500000Y-98950000D03*
X147500000Y-89950000D03*
X147500000Y-98950000D03*
X123000000Y-118950000D03*
X133500000Y-98950000D03*
X147500000Y-95450000D03*
X153000000Y-116450000D03*
X175500000Y-84950000D03*
X135500000Y-110450000D03*
X171000000Y-122950000D03*
X133500000Y-91950000D03*
X143500000Y-122450000D03*
X133500000Y-84950000D03*
X130500000Y-110450000D03*
X147500000Y-84950000D03*
X147500000Y-121950000D03*
X127000000Y-110450000D03*
X133500000Y-122450000D03*
X161500000Y-89950000D03*
X175500000Y-81450000D03*
X175500000Y-95450000D03*
X174500000Y-122950000D03*
X161500000Y-98950000D03*
X133500000Y-88450000D03*
X126000000Y-85950000D03*
X161500000Y-95450000D03*
X153000000Y-114450000D03*
X143000000Y-110450000D03*
X140500000Y-110450000D03*
X126000000Y-95950000D03*
X125500000Y-109950000D03*
X138000000Y-110450000D03*
%TD*%
%TA.AperFunction,Conductor*%
%TO.N,+12V*%
G36*
X181942539Y-77969685D02*
G01*
X181988294Y-78022489D01*
X181999500Y-78074000D01*
X181999500Y-118899138D01*
X181979815Y-118966177D01*
X181963181Y-118986819D01*
X181036319Y-119913681D01*
X180974996Y-119947166D01*
X180948638Y-119950000D01*
X179676255Y-119950000D01*
X179622453Y-119937720D01*
X179554236Y-119904868D01*
X179554222Y-119904862D01*
X179262647Y-119802835D01*
X179262635Y-119802831D01*
X178961455Y-119734089D01*
X178961437Y-119734086D01*
X178654471Y-119699500D01*
X178654465Y-119699500D01*
X178345535Y-119699500D01*
X178345528Y-119699500D01*
X178038562Y-119734086D01*
X178038544Y-119734089D01*
X177737364Y-119802831D01*
X177737352Y-119802835D01*
X177445777Y-119904862D01*
X177445763Y-119904868D01*
X177377547Y-119937720D01*
X177323745Y-119950000D01*
X175624000Y-119950000D01*
X175556961Y-119930315D01*
X175511206Y-119877511D01*
X175500000Y-119826000D01*
X175500000Y-110972135D01*
X177149500Y-110972135D01*
X177149500Y-112767870D01*
X177149501Y-112767876D01*
X177155908Y-112827483D01*
X177206202Y-112962328D01*
X177206206Y-112962335D01*
X177292452Y-113077544D01*
X177292455Y-113077547D01*
X177407664Y-113163793D01*
X177407671Y-113163797D01*
X177539082Y-113212810D01*
X177595016Y-113254681D01*
X177619433Y-113320145D01*
X177604582Y-113388418D01*
X177583431Y-113416673D01*
X177469889Y-113530215D01*
X177344951Y-113702179D01*
X177248444Y-113891585D01*
X177182753Y-114093760D01*
X177149500Y-114303713D01*
X177149500Y-114516287D01*
X177159534Y-114579644D01*
X177180603Y-114712666D01*
X177182754Y-114726243D01*
X177232176Y-114878349D01*
X177248444Y-114928414D01*
X177344951Y-115117820D01*
X177469890Y-115289786D01*
X177620213Y-115440109D01*
X177792179Y-115565048D01*
X177792181Y-115565049D01*
X177792184Y-115565051D01*
X177801493Y-115569794D01*
X177852290Y-115617766D01*
X177869087Y-115685587D01*
X177846552Y-115751722D01*
X177801502Y-115790762D01*
X177792443Y-115795378D01*
X177620540Y-115920272D01*
X177620535Y-115920276D01*
X177470276Y-116070535D01*
X177470272Y-116070540D01*
X177345379Y-116242442D01*
X177248904Y-116431782D01*
X177183242Y-116633870D01*
X177183242Y-116633873D01*
X177172769Y-116700000D01*
X178066988Y-116700000D01*
X178034075Y-116757007D01*
X178000000Y-116884174D01*
X178000000Y-117015826D01*
X178034075Y-117142993D01*
X178066988Y-117200000D01*
X177172769Y-117200000D01*
X177183242Y-117266126D01*
X177183242Y-117266129D01*
X177248904Y-117468217D01*
X177345379Y-117657557D01*
X177470272Y-117829459D01*
X177470276Y-117829464D01*
X177620535Y-117979723D01*
X177620540Y-117979727D01*
X177792442Y-118104620D01*
X177981782Y-118201095D01*
X178183871Y-118266757D01*
X178250000Y-118277231D01*
X178250000Y-117383012D01*
X178307007Y-117415925D01*
X178434174Y-117450000D01*
X178565826Y-117450000D01*
X178692993Y-117415925D01*
X178750000Y-117383012D01*
X178750000Y-118277230D01*
X178816126Y-118266757D01*
X178816129Y-118266757D01*
X179018217Y-118201095D01*
X179207557Y-118104620D01*
X179379459Y-117979727D01*
X179379464Y-117979723D01*
X179529723Y-117829464D01*
X179529727Y-117829459D01*
X179654620Y-117657557D01*
X179751095Y-117468217D01*
X179816757Y-117266129D01*
X179816757Y-117266126D01*
X179827231Y-117200000D01*
X178933012Y-117200000D01*
X178965925Y-117142993D01*
X179000000Y-117015826D01*
X179000000Y-116884174D01*
X178965925Y-116757007D01*
X178933012Y-116700000D01*
X179827231Y-116700000D01*
X179816757Y-116633873D01*
X179816757Y-116633870D01*
X179751095Y-116431782D01*
X179654620Y-116242442D01*
X179529727Y-116070540D01*
X179529723Y-116070535D01*
X179379464Y-115920276D01*
X179379459Y-115920272D01*
X179207555Y-115795377D01*
X179198500Y-115790763D01*
X179147706Y-115742788D01*
X179130912Y-115674966D01*
X179153451Y-115608832D01*
X179198508Y-115569793D01*
X179207816Y-115565051D01*
X179297056Y-115500215D01*
X179379786Y-115440109D01*
X179379788Y-115440106D01*
X179379792Y-115440104D01*
X179530104Y-115289792D01*
X179530106Y-115289788D01*
X179530109Y-115289786D01*
X179655048Y-115117820D01*
X179655047Y-115117820D01*
X179655051Y-115117816D01*
X179751557Y-114928412D01*
X179817246Y-114726243D01*
X179850500Y-114516287D01*
X179850500Y-114303713D01*
X179817246Y-114093757D01*
X179751557Y-113891588D01*
X179655051Y-113702184D01*
X179655049Y-113702181D01*
X179655048Y-113702179D01*
X179530109Y-113530213D01*
X179416569Y-113416673D01*
X179383084Y-113355350D01*
X179388068Y-113285658D01*
X179429940Y-113229725D01*
X179460915Y-113212810D01*
X179592331Y-113163796D01*
X179707546Y-113077546D01*
X179793796Y-112962331D01*
X179844091Y-112827483D01*
X179850500Y-112767873D01*
X179850499Y-110972128D01*
X179844091Y-110912517D01*
X179793796Y-110777669D01*
X179793795Y-110777668D01*
X179793793Y-110777664D01*
X179707547Y-110662455D01*
X179707544Y-110662452D01*
X179592335Y-110576206D01*
X179592328Y-110576202D01*
X179457482Y-110525908D01*
X179457483Y-110525908D01*
X179397883Y-110519501D01*
X179397881Y-110519500D01*
X179397873Y-110519500D01*
X179397864Y-110519500D01*
X177602129Y-110519500D01*
X177602123Y-110519501D01*
X177542516Y-110525908D01*
X177407671Y-110576202D01*
X177407664Y-110576206D01*
X177292455Y-110662452D01*
X177292452Y-110662455D01*
X177206206Y-110777664D01*
X177206202Y-110777671D01*
X177155908Y-110912517D01*
X177149501Y-110972116D01*
X177149501Y-110972123D01*
X177149500Y-110972135D01*
X175500000Y-110972135D01*
X175500000Y-108501362D01*
X175519685Y-108434323D01*
X175536319Y-108413681D01*
X177000000Y-106950000D01*
X178500001Y-105450000D01*
X178510506Y-105439494D01*
X178521014Y-105428985D01*
X178552397Y-105406183D01*
X178694714Y-105333670D01*
X178863505Y-105211035D01*
X179011035Y-105063505D01*
X179133670Y-104894714D01*
X179206185Y-104752394D01*
X179228976Y-104721023D01*
X179500000Y-104450000D01*
X179500000Y-95950000D01*
X179500000Y-94950000D01*
X178865949Y-94950000D01*
X178798910Y-94930315D01*
X178753155Y-94877511D01*
X178742331Y-94816272D01*
X178743818Y-94797371D01*
X178170234Y-94223787D01*
X178212292Y-94212518D01*
X178337708Y-94140110D01*
X178440110Y-94037708D01*
X178512518Y-93912292D01*
X178523787Y-93870234D01*
X179097371Y-94443818D01*
X179097372Y-94443818D01*
X179133240Y-94394451D01*
X179227924Y-94208627D01*
X179292373Y-94010272D01*
X179325000Y-93804279D01*
X179325000Y-93595720D01*
X179292373Y-93389727D01*
X179227924Y-93191372D01*
X179133244Y-93005556D01*
X179133236Y-93005543D01*
X179097372Y-92956180D01*
X179097371Y-92956179D01*
X178523787Y-93529764D01*
X178512518Y-93487708D01*
X178440110Y-93362292D01*
X178337708Y-93259890D01*
X178212292Y-93187482D01*
X178170233Y-93176212D01*
X178743819Y-92602627D01*
X178694451Y-92566759D01*
X178508627Y-92472075D01*
X178310272Y-92407626D01*
X178104279Y-92375000D01*
X177895721Y-92375000D01*
X177689727Y-92407626D01*
X177491372Y-92472075D01*
X177305552Y-92566757D01*
X177256180Y-92602627D01*
X177829766Y-93176212D01*
X177787708Y-93187482D01*
X177662292Y-93259890D01*
X177559890Y-93362292D01*
X177487482Y-93487708D01*
X177476212Y-93529765D01*
X176902627Y-92956180D01*
X176866757Y-93005552D01*
X176772075Y-93191372D01*
X176707626Y-93389727D01*
X176675000Y-93595720D01*
X176675000Y-93804279D01*
X176707626Y-94010272D01*
X176772075Y-94208627D01*
X176866759Y-94394451D01*
X176902627Y-94443818D01*
X176902627Y-94443819D01*
X177476212Y-93870234D01*
X177487482Y-93912292D01*
X177559890Y-94037708D01*
X177662292Y-94140110D01*
X177787708Y-94212518D01*
X177829765Y-94223787D01*
X177256179Y-94797371D01*
X177257667Y-94816272D01*
X177243302Y-94884649D01*
X177194251Y-94934406D01*
X177134049Y-94950000D01*
X176315212Y-94950000D01*
X176248173Y-94930315D01*
X176212109Y-94894890D01*
X176205266Y-94884649D01*
X176199464Y-94875965D01*
X176199462Y-94875962D01*
X176074038Y-94750538D01*
X176074034Y-94750535D01*
X175926553Y-94651990D01*
X175926540Y-94651983D01*
X175762667Y-94584106D01*
X175762658Y-94584103D01*
X175588694Y-94549500D01*
X175588691Y-94549500D01*
X175411309Y-94549500D01*
X175411306Y-94549500D01*
X175237341Y-94584103D01*
X175237332Y-94584106D01*
X175073459Y-94651983D01*
X175073446Y-94651990D01*
X174925965Y-94750535D01*
X174925961Y-94750538D01*
X174800537Y-94875962D01*
X174787891Y-94894890D01*
X174734279Y-94939695D01*
X174684788Y-94950000D01*
X173865949Y-94950000D01*
X173798910Y-94930315D01*
X173753155Y-94877511D01*
X173742331Y-94816272D01*
X173743818Y-94797371D01*
X173170234Y-94223787D01*
X173212292Y-94212518D01*
X173337708Y-94140110D01*
X173440110Y-94037708D01*
X173512518Y-93912292D01*
X173523787Y-93870234D01*
X174097371Y-94443818D01*
X174097372Y-94443818D01*
X174133240Y-94394451D01*
X174227924Y-94208627D01*
X174292373Y-94010272D01*
X174325000Y-93804279D01*
X174325000Y-93595720D01*
X174292373Y-93389727D01*
X174227924Y-93191372D01*
X174133244Y-93005556D01*
X174133236Y-93005543D01*
X174097372Y-92956180D01*
X174097371Y-92956179D01*
X173523787Y-93529764D01*
X173512518Y-93487708D01*
X173440110Y-93362292D01*
X173337708Y-93259890D01*
X173212292Y-93187482D01*
X173170233Y-93176212D01*
X173743819Y-92602627D01*
X173694451Y-92566759D01*
X173508627Y-92472075D01*
X173310272Y-92407626D01*
X173104279Y-92375000D01*
X172895721Y-92375000D01*
X172689727Y-92407626D01*
X172491372Y-92472075D01*
X172305552Y-92566757D01*
X172256180Y-92602627D01*
X172829766Y-93176212D01*
X172787708Y-93187482D01*
X172662292Y-93259890D01*
X172559890Y-93362292D01*
X172487482Y-93487708D01*
X172476212Y-93529765D01*
X171902627Y-92956180D01*
X171866757Y-93005552D01*
X171772075Y-93191372D01*
X171707626Y-93389727D01*
X171675000Y-93595720D01*
X171675000Y-93804279D01*
X171707626Y-94010272D01*
X171772075Y-94208627D01*
X171866759Y-94394451D01*
X171902627Y-94443818D01*
X171902627Y-94443819D01*
X172476212Y-93870234D01*
X172487482Y-93912292D01*
X172559890Y-94037708D01*
X172662292Y-94140110D01*
X172787708Y-94212518D01*
X172829765Y-94223787D01*
X172256179Y-94797371D01*
X172257667Y-94816272D01*
X172243302Y-94884649D01*
X172194251Y-94934406D01*
X172134049Y-94950000D01*
X164865949Y-94950000D01*
X164798910Y-94930315D01*
X164753155Y-94877511D01*
X164742331Y-94816272D01*
X164743818Y-94797371D01*
X164170234Y-94223787D01*
X164212292Y-94212518D01*
X164337708Y-94140110D01*
X164440110Y-94037708D01*
X164512518Y-93912292D01*
X164523787Y-93870234D01*
X165097371Y-94443818D01*
X165097372Y-94443818D01*
X165133240Y-94394451D01*
X165227924Y-94208627D01*
X165292373Y-94010272D01*
X165325000Y-93804279D01*
X165325000Y-93595720D01*
X165292373Y-93389727D01*
X165227924Y-93191372D01*
X165133244Y-93005556D01*
X165133236Y-93005543D01*
X165097372Y-92956180D01*
X165097371Y-92956179D01*
X164523787Y-93529764D01*
X164512518Y-93487708D01*
X164440110Y-93362292D01*
X164337708Y-93259890D01*
X164212292Y-93187482D01*
X164170233Y-93176212D01*
X164743819Y-92602627D01*
X164694451Y-92566759D01*
X164508627Y-92472075D01*
X164310272Y-92407626D01*
X164104279Y-92375000D01*
X163895721Y-92375000D01*
X163689727Y-92407626D01*
X163491372Y-92472075D01*
X163305552Y-92566757D01*
X163256180Y-92602627D01*
X163829766Y-93176212D01*
X163787708Y-93187482D01*
X163662292Y-93259890D01*
X163559890Y-93362292D01*
X163487482Y-93487708D01*
X163476212Y-93529765D01*
X162902627Y-92956180D01*
X162866757Y-93005552D01*
X162772075Y-93191372D01*
X162707626Y-93389727D01*
X162675000Y-93595720D01*
X162675000Y-93804279D01*
X162707626Y-94010272D01*
X162772075Y-94208627D01*
X162866759Y-94394451D01*
X162902627Y-94443818D01*
X162902627Y-94443819D01*
X163476212Y-93870234D01*
X163487482Y-93912292D01*
X163559890Y-94037708D01*
X163662292Y-94140110D01*
X163787708Y-94212518D01*
X163829765Y-94223787D01*
X163256179Y-94797371D01*
X163257667Y-94816272D01*
X163243302Y-94884649D01*
X163194251Y-94934406D01*
X163134049Y-94950000D01*
X162315212Y-94950000D01*
X162248173Y-94930315D01*
X162212109Y-94894890D01*
X162205266Y-94884649D01*
X162199464Y-94875965D01*
X162199462Y-94875962D01*
X162074038Y-94750538D01*
X162074034Y-94750535D01*
X161926553Y-94651990D01*
X161926540Y-94651983D01*
X161762667Y-94584106D01*
X161762658Y-94584103D01*
X161588694Y-94549500D01*
X161588691Y-94549500D01*
X161411309Y-94549500D01*
X161411306Y-94549500D01*
X161237341Y-94584103D01*
X161237332Y-94584106D01*
X161073459Y-94651983D01*
X161073446Y-94651990D01*
X160925965Y-94750535D01*
X160925961Y-94750538D01*
X160800537Y-94875962D01*
X160787891Y-94894890D01*
X160734279Y-94939695D01*
X160684788Y-94950000D01*
X159865949Y-94950000D01*
X159798910Y-94930315D01*
X159753155Y-94877511D01*
X159742331Y-94816272D01*
X159743818Y-94797371D01*
X159170234Y-94223787D01*
X159212292Y-94212518D01*
X159337708Y-94140110D01*
X159440110Y-94037708D01*
X159512518Y-93912292D01*
X159523787Y-93870234D01*
X160097371Y-94443818D01*
X160097372Y-94443818D01*
X160133240Y-94394451D01*
X160227924Y-94208627D01*
X160292373Y-94010272D01*
X160325000Y-93804279D01*
X160325000Y-93595720D01*
X160292373Y-93389727D01*
X160227924Y-93191372D01*
X160133244Y-93005556D01*
X160133236Y-93005543D01*
X160097372Y-92956180D01*
X160097371Y-92956179D01*
X159523787Y-93529764D01*
X159512518Y-93487708D01*
X159440110Y-93362292D01*
X159337708Y-93259890D01*
X159212292Y-93187482D01*
X159170233Y-93176212D01*
X159743819Y-92602627D01*
X159694451Y-92566759D01*
X159508627Y-92472075D01*
X159310272Y-92407626D01*
X159104279Y-92375000D01*
X158895721Y-92375000D01*
X158689727Y-92407626D01*
X158491372Y-92472075D01*
X158305552Y-92566757D01*
X158256180Y-92602627D01*
X158829766Y-93176212D01*
X158787708Y-93187482D01*
X158662292Y-93259890D01*
X158559890Y-93362292D01*
X158487482Y-93487708D01*
X158476212Y-93529765D01*
X157902627Y-92956180D01*
X157866757Y-93005552D01*
X157772075Y-93191372D01*
X157707626Y-93389727D01*
X157675000Y-93595720D01*
X157675000Y-93804279D01*
X157707626Y-94010272D01*
X157772075Y-94208627D01*
X157866759Y-94394451D01*
X157902627Y-94443818D01*
X157902627Y-94443819D01*
X158476212Y-93870234D01*
X158487482Y-93912292D01*
X158559890Y-94037708D01*
X158662292Y-94140110D01*
X158787708Y-94212518D01*
X158829765Y-94223787D01*
X158256179Y-94797371D01*
X158257667Y-94816272D01*
X158243302Y-94884649D01*
X158194251Y-94934406D01*
X158134049Y-94950000D01*
X150865949Y-94950000D01*
X150798910Y-94930315D01*
X150753155Y-94877511D01*
X150742331Y-94816272D01*
X150743818Y-94797371D01*
X150170234Y-94223787D01*
X150212292Y-94212518D01*
X150337708Y-94140110D01*
X150440110Y-94037708D01*
X150512518Y-93912292D01*
X150523787Y-93870234D01*
X151097371Y-94443818D01*
X151097372Y-94443818D01*
X151133240Y-94394451D01*
X151227924Y-94208627D01*
X151292373Y-94010272D01*
X151325000Y-93804279D01*
X151325000Y-93595720D01*
X151292373Y-93389727D01*
X151227924Y-93191372D01*
X151133244Y-93005556D01*
X151133236Y-93005543D01*
X151097372Y-92956180D01*
X151097371Y-92956179D01*
X150523787Y-93529764D01*
X150512518Y-93487708D01*
X150440110Y-93362292D01*
X150337708Y-93259890D01*
X150212292Y-93187482D01*
X150170233Y-93176212D01*
X150743819Y-92602627D01*
X150694451Y-92566759D01*
X150508627Y-92472075D01*
X150310272Y-92407626D01*
X150104279Y-92375000D01*
X149895721Y-92375000D01*
X149689727Y-92407626D01*
X149491372Y-92472075D01*
X149305552Y-92566757D01*
X149256180Y-92602627D01*
X149829766Y-93176212D01*
X149787708Y-93187482D01*
X149662292Y-93259890D01*
X149559890Y-93362292D01*
X149487482Y-93487708D01*
X149476212Y-93529765D01*
X148902627Y-92956180D01*
X148866757Y-93005552D01*
X148772075Y-93191372D01*
X148707626Y-93389727D01*
X148675000Y-93595720D01*
X148675000Y-93804279D01*
X148707626Y-94010272D01*
X148772075Y-94208627D01*
X148866759Y-94394451D01*
X148902627Y-94443818D01*
X148902627Y-94443819D01*
X149476212Y-93870234D01*
X149487482Y-93912292D01*
X149559890Y-94037708D01*
X149662292Y-94140110D01*
X149787708Y-94212518D01*
X149829765Y-94223787D01*
X149256179Y-94797371D01*
X149257667Y-94816272D01*
X149243302Y-94884649D01*
X149194251Y-94934406D01*
X149134049Y-94950000D01*
X148315212Y-94950000D01*
X148248173Y-94930315D01*
X148212109Y-94894890D01*
X148205266Y-94884649D01*
X148199464Y-94875965D01*
X148199462Y-94875962D01*
X148074038Y-94750538D01*
X148074034Y-94750535D01*
X147926553Y-94651990D01*
X147926540Y-94651983D01*
X147762667Y-94584106D01*
X147762658Y-94584103D01*
X147588694Y-94549500D01*
X147588691Y-94549500D01*
X147411309Y-94549500D01*
X147411306Y-94549500D01*
X147237341Y-94584103D01*
X147237332Y-94584106D01*
X147073459Y-94651983D01*
X147073446Y-94651990D01*
X146925965Y-94750535D01*
X146925961Y-94750538D01*
X146800537Y-94875962D01*
X146787891Y-94894890D01*
X146734279Y-94939695D01*
X146684788Y-94950000D01*
X145865949Y-94950000D01*
X145798910Y-94930315D01*
X145753155Y-94877511D01*
X145742331Y-94816272D01*
X145743818Y-94797371D01*
X145170234Y-94223787D01*
X145212292Y-94212518D01*
X145337708Y-94140110D01*
X145440110Y-94037708D01*
X145512518Y-93912292D01*
X145523787Y-93870234D01*
X146097371Y-94443818D01*
X146097372Y-94443818D01*
X146133240Y-94394451D01*
X146227924Y-94208627D01*
X146292373Y-94010272D01*
X146325000Y-93804279D01*
X146325000Y-93595720D01*
X146292373Y-93389727D01*
X146227924Y-93191372D01*
X146133244Y-93005556D01*
X146133236Y-93005543D01*
X146097372Y-92956180D01*
X146097371Y-92956179D01*
X145523787Y-93529764D01*
X145512518Y-93487708D01*
X145440110Y-93362292D01*
X145337708Y-93259890D01*
X145212292Y-93187482D01*
X145170233Y-93176212D01*
X145743819Y-92602627D01*
X145694451Y-92566759D01*
X145508627Y-92472075D01*
X145310272Y-92407626D01*
X145104279Y-92375000D01*
X144895721Y-92375000D01*
X144689727Y-92407626D01*
X144491372Y-92472075D01*
X144305552Y-92566757D01*
X144256180Y-92602627D01*
X144829766Y-93176212D01*
X144787708Y-93187482D01*
X144662292Y-93259890D01*
X144559890Y-93362292D01*
X144487482Y-93487708D01*
X144476212Y-93529765D01*
X143902627Y-92956180D01*
X143866757Y-93005552D01*
X143772075Y-93191372D01*
X143707626Y-93389727D01*
X143675000Y-93595720D01*
X143675000Y-93804279D01*
X143707626Y-94010272D01*
X143772075Y-94208627D01*
X143866759Y-94394451D01*
X143902627Y-94443818D01*
X143902627Y-94443819D01*
X144476212Y-93870234D01*
X144487482Y-93912292D01*
X144559890Y-94037708D01*
X144662292Y-94140110D01*
X144787708Y-94212518D01*
X144829765Y-94223787D01*
X144256179Y-94797371D01*
X144257667Y-94816272D01*
X144243302Y-94884649D01*
X144194251Y-94934406D01*
X144134049Y-94950000D01*
X136865949Y-94950000D01*
X136798910Y-94930315D01*
X136753155Y-94877511D01*
X136742331Y-94816272D01*
X136743818Y-94797371D01*
X136170234Y-94223787D01*
X136212292Y-94212518D01*
X136337708Y-94140110D01*
X136440110Y-94037708D01*
X136512518Y-93912292D01*
X136523787Y-93870234D01*
X137097371Y-94443818D01*
X137097372Y-94443818D01*
X137133240Y-94394451D01*
X137227924Y-94208627D01*
X137292373Y-94010272D01*
X137325000Y-93804279D01*
X137325000Y-93595720D01*
X137292373Y-93389727D01*
X137227924Y-93191372D01*
X137133244Y-93005556D01*
X137133236Y-93005543D01*
X137097372Y-92956180D01*
X137097371Y-92956179D01*
X136523787Y-93529764D01*
X136512518Y-93487708D01*
X136440110Y-93362292D01*
X136337708Y-93259890D01*
X136212292Y-93187482D01*
X136170233Y-93176212D01*
X136743819Y-92602627D01*
X136694451Y-92566759D01*
X136508627Y-92472075D01*
X136310272Y-92407626D01*
X136104279Y-92375000D01*
X135895721Y-92375000D01*
X135689727Y-92407626D01*
X135491372Y-92472075D01*
X135305552Y-92566757D01*
X135256180Y-92602627D01*
X135829766Y-93176212D01*
X135787708Y-93187482D01*
X135662292Y-93259890D01*
X135559890Y-93362292D01*
X135487482Y-93487708D01*
X135476212Y-93529765D01*
X134902627Y-92956180D01*
X134866757Y-93005552D01*
X134772075Y-93191372D01*
X134707626Y-93389727D01*
X134675000Y-93595720D01*
X134675000Y-93804279D01*
X134707626Y-94010272D01*
X134772075Y-94208627D01*
X134866759Y-94394451D01*
X134902627Y-94443818D01*
X134902627Y-94443819D01*
X135476212Y-93870234D01*
X135487482Y-93912292D01*
X135559890Y-94037708D01*
X135662292Y-94140110D01*
X135787708Y-94212518D01*
X135829765Y-94223787D01*
X135256179Y-94797371D01*
X135257667Y-94816272D01*
X135243302Y-94884649D01*
X135194251Y-94934406D01*
X135134049Y-94950000D01*
X134315212Y-94950000D01*
X134248173Y-94930315D01*
X134212109Y-94894890D01*
X134205266Y-94884649D01*
X134199464Y-94875965D01*
X134199462Y-94875962D01*
X134074038Y-94750538D01*
X134074034Y-94750535D01*
X133926553Y-94651990D01*
X133926540Y-94651983D01*
X133762667Y-94584106D01*
X133762658Y-94584103D01*
X133588694Y-94549500D01*
X133588691Y-94549500D01*
X133411309Y-94549500D01*
X133411306Y-94549500D01*
X133237341Y-94584103D01*
X133237332Y-94584106D01*
X133073459Y-94651983D01*
X133073446Y-94651990D01*
X132925965Y-94750535D01*
X132925961Y-94750538D01*
X132800537Y-94875962D01*
X132787891Y-94894890D01*
X132734279Y-94939695D01*
X132684788Y-94950000D01*
X131865949Y-94950000D01*
X131798910Y-94930315D01*
X131753155Y-94877511D01*
X131742331Y-94816272D01*
X131743818Y-94797371D01*
X131170234Y-94223787D01*
X131212292Y-94212518D01*
X131337708Y-94140110D01*
X131440110Y-94037708D01*
X131512518Y-93912292D01*
X131523787Y-93870234D01*
X132097371Y-94443818D01*
X132097372Y-94443818D01*
X132133240Y-94394451D01*
X132227924Y-94208627D01*
X132292373Y-94010272D01*
X132325000Y-93804279D01*
X132325000Y-93595720D01*
X132292373Y-93389727D01*
X132227924Y-93191372D01*
X132133244Y-93005556D01*
X132133236Y-93005543D01*
X132097372Y-92956180D01*
X132097371Y-92956179D01*
X131523787Y-93529764D01*
X131512518Y-93487708D01*
X131440110Y-93362292D01*
X131337708Y-93259890D01*
X131212292Y-93187482D01*
X131170233Y-93176212D01*
X131743819Y-92602627D01*
X131694451Y-92566759D01*
X131508627Y-92472075D01*
X131310272Y-92407626D01*
X131104279Y-92375000D01*
X130895721Y-92375000D01*
X130689727Y-92407626D01*
X130491372Y-92472075D01*
X130305552Y-92566757D01*
X130256180Y-92602627D01*
X130829766Y-93176212D01*
X130787708Y-93187482D01*
X130662292Y-93259890D01*
X130559890Y-93362292D01*
X130487482Y-93487708D01*
X130476212Y-93529765D01*
X129902627Y-92956180D01*
X129866757Y-93005552D01*
X129772075Y-93191372D01*
X129741931Y-93284148D01*
X129702493Y-93341823D01*
X129638134Y-93369021D01*
X129569288Y-93357106D01*
X129517812Y-93309862D01*
X129500000Y-93245829D01*
X129500000Y-92479272D01*
X129513091Y-92423818D01*
X129536724Y-92376553D01*
X129618667Y-92212667D01*
X129705654Y-92038693D01*
X129929177Y-91591647D01*
X129963756Y-91522489D01*
X129965727Y-91518546D01*
X130013314Y-91467387D01*
X130076636Y-91450000D01*
X130538056Y-91450000D01*
X130576373Y-91456068D01*
X130618280Y-91469685D01*
X130689610Y-91492862D01*
X130895676Y-91525500D01*
X130895681Y-91525500D01*
X131104324Y-91525500D01*
X131310389Y-91492862D01*
X131381720Y-91469685D01*
X131423626Y-91456068D01*
X131461944Y-91450000D01*
X132546834Y-91450000D01*
X132613873Y-91469685D01*
X132659628Y-91522489D01*
X132669572Y-91591647D01*
X132661395Y-91621452D01*
X132634106Y-91687332D01*
X132634103Y-91687341D01*
X132599500Y-91861304D01*
X132599500Y-92038695D01*
X132634103Y-92212658D01*
X132634106Y-92212667D01*
X132701983Y-92376540D01*
X132701990Y-92376553D01*
X132800535Y-92524034D01*
X132800538Y-92524038D01*
X132925961Y-92649461D01*
X132925965Y-92649464D01*
X133073446Y-92748009D01*
X133073459Y-92748016D01*
X133196363Y-92798923D01*
X133237334Y-92815894D01*
X133237336Y-92815894D01*
X133237341Y-92815896D01*
X133411304Y-92850499D01*
X133411307Y-92850500D01*
X133411309Y-92850500D01*
X133588693Y-92850500D01*
X133588694Y-92850499D01*
X133646682Y-92838964D01*
X133762658Y-92815896D01*
X133762661Y-92815894D01*
X133762666Y-92815894D01*
X133926547Y-92748013D01*
X134074035Y-92649464D01*
X134074038Y-92649461D01*
X134161295Y-92562205D01*
X134199461Y-92524038D01*
X134199464Y-92524035D01*
X134298013Y-92376547D01*
X134365894Y-92212666D01*
X134400500Y-92038691D01*
X134400500Y-91861309D01*
X134400500Y-91861306D01*
X134400499Y-91861304D01*
X134365896Y-91687341D01*
X134365893Y-91687332D01*
X134338605Y-91621452D01*
X134331136Y-91551983D01*
X134362411Y-91489504D01*
X134422501Y-91453852D01*
X134453166Y-91450000D01*
X135538056Y-91450000D01*
X135576373Y-91456068D01*
X135618280Y-91469685D01*
X135689610Y-91492862D01*
X135895676Y-91525500D01*
X135895681Y-91525500D01*
X136104324Y-91525500D01*
X136310389Y-91492862D01*
X136381720Y-91469685D01*
X136423626Y-91456068D01*
X136461944Y-91450000D01*
X144538056Y-91450000D01*
X144576373Y-91456068D01*
X144618280Y-91469685D01*
X144689610Y-91492862D01*
X144895676Y-91525500D01*
X144895681Y-91525500D01*
X145104324Y-91525500D01*
X145310389Y-91492862D01*
X145381720Y-91469685D01*
X145423626Y-91456068D01*
X145461944Y-91450000D01*
X149538056Y-91450000D01*
X149576373Y-91456068D01*
X149618280Y-91469685D01*
X149689610Y-91492862D01*
X149895676Y-91525500D01*
X149895681Y-91525500D01*
X150104324Y-91525500D01*
X150310389Y-91492862D01*
X150381720Y-91469685D01*
X150423626Y-91456068D01*
X150461944Y-91450000D01*
X158538056Y-91450000D01*
X158576373Y-91456068D01*
X158618280Y-91469685D01*
X158689610Y-91492862D01*
X158895676Y-91525500D01*
X158895681Y-91525500D01*
X159104324Y-91525500D01*
X159310389Y-91492862D01*
X159381720Y-91469685D01*
X159423626Y-91456068D01*
X159461944Y-91450000D01*
X163538056Y-91450000D01*
X163576373Y-91456068D01*
X163618280Y-91469685D01*
X163689610Y-91492862D01*
X163895676Y-91525500D01*
X163895681Y-91525500D01*
X164104324Y-91525500D01*
X164310389Y-91492862D01*
X164381720Y-91469685D01*
X164423626Y-91456068D01*
X164461944Y-91450000D01*
X172538056Y-91450000D01*
X172576373Y-91456068D01*
X172618280Y-91469685D01*
X172689610Y-91492862D01*
X172895676Y-91525500D01*
X172895681Y-91525500D01*
X173104324Y-91525500D01*
X173310389Y-91492862D01*
X173381720Y-91469685D01*
X173423626Y-91456068D01*
X173461944Y-91450000D01*
X177538056Y-91450000D01*
X177576373Y-91456068D01*
X177618280Y-91469685D01*
X177689610Y-91492862D01*
X177895676Y-91525500D01*
X177895681Y-91525500D01*
X178104324Y-91525500D01*
X178310389Y-91492862D01*
X178381720Y-91469685D01*
X178423626Y-91456068D01*
X178461944Y-91450000D01*
X179500000Y-91450000D01*
X179500000Y-81450000D01*
X179000000Y-80950000D01*
X178865949Y-80950000D01*
X178798910Y-80930315D01*
X178753155Y-80877511D01*
X178742331Y-80816272D01*
X178743818Y-80797371D01*
X178170234Y-80223787D01*
X178212292Y-80212518D01*
X178337708Y-80140110D01*
X178440110Y-80037708D01*
X178512518Y-79912292D01*
X178523787Y-79870234D01*
X179097371Y-80443818D01*
X179097372Y-80443818D01*
X179133240Y-80394451D01*
X179227924Y-80208627D01*
X179292373Y-80010272D01*
X179325000Y-79804279D01*
X179325000Y-79595720D01*
X179292373Y-79389727D01*
X179227924Y-79191372D01*
X179133244Y-79005556D01*
X179133236Y-79005543D01*
X179097372Y-78956180D01*
X179097371Y-78956179D01*
X178523787Y-79529764D01*
X178512518Y-79487708D01*
X178440110Y-79362292D01*
X178337708Y-79259890D01*
X178212292Y-79187482D01*
X178170233Y-79176212D01*
X178743819Y-78602627D01*
X178694451Y-78566759D01*
X178508627Y-78472075D01*
X178310272Y-78407626D01*
X178104279Y-78375000D01*
X177895721Y-78375000D01*
X177689727Y-78407626D01*
X177491372Y-78472075D01*
X177305552Y-78566757D01*
X177256180Y-78602627D01*
X177829766Y-79176212D01*
X177787708Y-79187482D01*
X177662292Y-79259890D01*
X177559890Y-79362292D01*
X177487482Y-79487708D01*
X177476212Y-79529765D01*
X176902627Y-78956180D01*
X176866757Y-79005552D01*
X176772075Y-79191372D01*
X176707626Y-79389727D01*
X176675000Y-79595720D01*
X176675000Y-79804279D01*
X176707626Y-80010272D01*
X176772075Y-80208627D01*
X176866759Y-80394451D01*
X176902627Y-80443818D01*
X176902627Y-80443819D01*
X177476212Y-79870234D01*
X177487482Y-79912292D01*
X177559890Y-80037708D01*
X177662292Y-80140110D01*
X177787708Y-80212518D01*
X177829765Y-80223787D01*
X177256179Y-80797371D01*
X177257667Y-80816272D01*
X177243302Y-80884649D01*
X177194251Y-80934406D01*
X177134049Y-80950000D01*
X176315212Y-80950000D01*
X176248173Y-80930315D01*
X176212109Y-80894890D01*
X176211883Y-80894552D01*
X176199464Y-80875965D01*
X176199462Y-80875962D01*
X176074038Y-80750538D01*
X176074034Y-80750535D01*
X175926553Y-80651990D01*
X175926540Y-80651983D01*
X175762667Y-80584106D01*
X175762658Y-80584103D01*
X175588694Y-80549500D01*
X175588691Y-80549500D01*
X175411309Y-80549500D01*
X175411306Y-80549500D01*
X175237341Y-80584103D01*
X175237332Y-80584106D01*
X175073459Y-80651983D01*
X175073446Y-80651990D01*
X174925965Y-80750535D01*
X174925961Y-80750538D01*
X174800537Y-80875962D01*
X174794733Y-80884649D01*
X174788117Y-80894552D01*
X174787891Y-80894890D01*
X174734279Y-80939695D01*
X174684788Y-80950000D01*
X173865949Y-80950000D01*
X173798910Y-80930315D01*
X173753155Y-80877511D01*
X173742331Y-80816272D01*
X173743818Y-80797371D01*
X173170234Y-80223787D01*
X173212292Y-80212518D01*
X173337708Y-80140110D01*
X173440110Y-80037708D01*
X173512518Y-79912292D01*
X173523787Y-79870234D01*
X174097371Y-80443818D01*
X174097372Y-80443818D01*
X174133240Y-80394451D01*
X174227924Y-80208627D01*
X174292373Y-80010272D01*
X174325000Y-79804279D01*
X174325000Y-79595720D01*
X174292373Y-79389727D01*
X174227924Y-79191372D01*
X174133244Y-79005556D01*
X174133236Y-79005543D01*
X174097372Y-78956180D01*
X174097371Y-78956179D01*
X173523787Y-79529764D01*
X173512518Y-79487708D01*
X173440110Y-79362292D01*
X173337708Y-79259890D01*
X173212292Y-79187482D01*
X173170233Y-79176212D01*
X173743819Y-78602627D01*
X173694451Y-78566759D01*
X173508627Y-78472075D01*
X173310272Y-78407626D01*
X173104279Y-78375000D01*
X172895721Y-78375000D01*
X172689727Y-78407626D01*
X172491372Y-78472075D01*
X172305552Y-78566757D01*
X172256180Y-78602627D01*
X172829766Y-79176212D01*
X172787708Y-79187482D01*
X172662292Y-79259890D01*
X172559890Y-79362292D01*
X172487482Y-79487708D01*
X172476212Y-79529765D01*
X171902627Y-78956180D01*
X171866757Y-79005552D01*
X171772075Y-79191372D01*
X171707626Y-79389727D01*
X171675000Y-79595720D01*
X171675000Y-79804279D01*
X171707626Y-80010272D01*
X171772075Y-80208627D01*
X171866759Y-80394451D01*
X171902627Y-80443818D01*
X171902627Y-80443819D01*
X172476212Y-79870234D01*
X172487482Y-79912292D01*
X172559890Y-80037708D01*
X172662292Y-80140110D01*
X172787708Y-80212518D01*
X172829765Y-80223787D01*
X172256179Y-80797371D01*
X172257667Y-80816272D01*
X172243302Y-80884649D01*
X172194251Y-80934406D01*
X172134049Y-80950000D01*
X164865949Y-80950000D01*
X164798910Y-80930315D01*
X164753155Y-80877511D01*
X164742331Y-80816272D01*
X164743818Y-80797371D01*
X164170234Y-80223787D01*
X164212292Y-80212518D01*
X164337708Y-80140110D01*
X164440110Y-80037708D01*
X164512518Y-79912292D01*
X164523787Y-79870234D01*
X165097371Y-80443818D01*
X165097372Y-80443818D01*
X165133240Y-80394451D01*
X165227924Y-80208627D01*
X165292373Y-80010272D01*
X165325000Y-79804279D01*
X165325000Y-79595720D01*
X165292373Y-79389727D01*
X165227924Y-79191372D01*
X165133244Y-79005556D01*
X165133236Y-79005543D01*
X165097372Y-78956180D01*
X165097371Y-78956179D01*
X164523787Y-79529764D01*
X164512518Y-79487708D01*
X164440110Y-79362292D01*
X164337708Y-79259890D01*
X164212292Y-79187482D01*
X164170233Y-79176212D01*
X164743819Y-78602627D01*
X164694451Y-78566759D01*
X164508627Y-78472075D01*
X164310272Y-78407626D01*
X164104279Y-78375000D01*
X163895721Y-78375000D01*
X163689727Y-78407626D01*
X163491372Y-78472075D01*
X163305552Y-78566757D01*
X163256180Y-78602627D01*
X163829766Y-79176212D01*
X163787708Y-79187482D01*
X163662292Y-79259890D01*
X163559890Y-79362292D01*
X163487482Y-79487708D01*
X163476212Y-79529765D01*
X162902627Y-78956180D01*
X162866757Y-79005552D01*
X162772075Y-79191372D01*
X162707626Y-79389727D01*
X162675000Y-79595720D01*
X162675000Y-79804279D01*
X162707626Y-80010272D01*
X162772075Y-80208627D01*
X162866759Y-80394451D01*
X162902627Y-80443818D01*
X162902627Y-80443819D01*
X163476212Y-79870234D01*
X163487482Y-79912292D01*
X163559890Y-80037708D01*
X163662292Y-80140110D01*
X163787708Y-80212518D01*
X163829765Y-80223787D01*
X163256179Y-80797371D01*
X163257667Y-80816272D01*
X163243302Y-80884649D01*
X163194251Y-80934406D01*
X163134049Y-80950000D01*
X159865949Y-80950000D01*
X159798910Y-80930315D01*
X159753155Y-80877511D01*
X159742331Y-80816272D01*
X159743818Y-80797371D01*
X159170234Y-80223787D01*
X159212292Y-80212518D01*
X159337708Y-80140110D01*
X159440110Y-80037708D01*
X159512518Y-79912292D01*
X159523787Y-79870234D01*
X160097371Y-80443818D01*
X160097372Y-80443818D01*
X160133240Y-80394451D01*
X160227924Y-80208627D01*
X160292373Y-80010272D01*
X160325000Y-79804279D01*
X160325000Y-79595720D01*
X160292373Y-79389727D01*
X160227924Y-79191372D01*
X160133244Y-79005556D01*
X160133236Y-79005543D01*
X160097372Y-78956180D01*
X160097371Y-78956179D01*
X159523787Y-79529764D01*
X159512518Y-79487708D01*
X159440110Y-79362292D01*
X159337708Y-79259890D01*
X159212292Y-79187482D01*
X159170233Y-79176212D01*
X159743819Y-78602627D01*
X159694451Y-78566759D01*
X159508627Y-78472075D01*
X159310272Y-78407626D01*
X159104279Y-78375000D01*
X158895721Y-78375000D01*
X158689727Y-78407626D01*
X158491372Y-78472075D01*
X158305552Y-78566757D01*
X158256180Y-78602627D01*
X158829766Y-79176212D01*
X158787708Y-79187482D01*
X158662292Y-79259890D01*
X158559890Y-79362292D01*
X158487482Y-79487708D01*
X158476212Y-79529765D01*
X157902627Y-78956180D01*
X157866757Y-79005552D01*
X157772075Y-79191372D01*
X157707626Y-79389727D01*
X157675000Y-79595720D01*
X157675000Y-79804279D01*
X157707626Y-80010272D01*
X157772075Y-80208627D01*
X157866759Y-80394451D01*
X157902627Y-80443818D01*
X157902627Y-80443819D01*
X158476212Y-79870234D01*
X158487482Y-79912292D01*
X158559890Y-80037708D01*
X158662292Y-80140110D01*
X158787708Y-80212518D01*
X158829765Y-80223787D01*
X158256179Y-80797371D01*
X158257667Y-80816272D01*
X158243302Y-80884649D01*
X158194251Y-80934406D01*
X158134049Y-80950000D01*
X150865949Y-80950000D01*
X150798910Y-80930315D01*
X150753155Y-80877511D01*
X150742331Y-80816272D01*
X150743818Y-80797371D01*
X150170234Y-80223787D01*
X150212292Y-80212518D01*
X150337708Y-80140110D01*
X150440110Y-80037708D01*
X150512518Y-79912292D01*
X150523787Y-79870234D01*
X151097371Y-80443818D01*
X151097372Y-80443818D01*
X151133240Y-80394451D01*
X151227924Y-80208627D01*
X151292373Y-80010272D01*
X151325000Y-79804279D01*
X151325000Y-79595720D01*
X151292373Y-79389727D01*
X151227924Y-79191372D01*
X151133244Y-79005556D01*
X151133236Y-79005543D01*
X151097372Y-78956180D01*
X151097371Y-78956179D01*
X150523787Y-79529764D01*
X150512518Y-79487708D01*
X150440110Y-79362292D01*
X150337708Y-79259890D01*
X150212292Y-79187482D01*
X150170233Y-79176212D01*
X150743819Y-78602627D01*
X150694451Y-78566759D01*
X150508627Y-78472075D01*
X150310272Y-78407626D01*
X150104279Y-78375000D01*
X149895721Y-78375000D01*
X149689727Y-78407626D01*
X149491372Y-78472075D01*
X149305552Y-78566757D01*
X149256180Y-78602627D01*
X149829766Y-79176212D01*
X149787708Y-79187482D01*
X149662292Y-79259890D01*
X149559890Y-79362292D01*
X149487482Y-79487708D01*
X149476212Y-79529765D01*
X148902627Y-78956180D01*
X148866757Y-79005552D01*
X148772075Y-79191372D01*
X148707626Y-79389727D01*
X148675000Y-79595720D01*
X148675000Y-79804279D01*
X148707626Y-80010272D01*
X148772075Y-80208627D01*
X148866759Y-80394451D01*
X148902627Y-80443818D01*
X148902627Y-80443819D01*
X149476212Y-79870234D01*
X149487482Y-79912292D01*
X149559890Y-80037708D01*
X149662292Y-80140110D01*
X149787708Y-80212518D01*
X149829765Y-80223787D01*
X149256179Y-80797371D01*
X149257667Y-80816272D01*
X149243302Y-80884649D01*
X149194251Y-80934406D01*
X149134049Y-80950000D01*
X148315212Y-80950000D01*
X148248173Y-80930315D01*
X148212109Y-80894890D01*
X148211883Y-80894552D01*
X148199464Y-80875965D01*
X148199462Y-80875962D01*
X148074038Y-80750538D01*
X148074034Y-80750535D01*
X147926553Y-80651990D01*
X147926540Y-80651983D01*
X147762667Y-80584106D01*
X147762658Y-80584103D01*
X147588694Y-80549500D01*
X147588691Y-80549500D01*
X147411309Y-80549500D01*
X147411306Y-80549500D01*
X147237341Y-80584103D01*
X147237332Y-80584106D01*
X147073459Y-80651983D01*
X147073446Y-80651990D01*
X146925965Y-80750535D01*
X146925961Y-80750538D01*
X146800537Y-80875962D01*
X146794733Y-80884649D01*
X146788117Y-80894552D01*
X146787891Y-80894890D01*
X146734279Y-80939695D01*
X146684788Y-80950000D01*
X145865949Y-80950000D01*
X145798910Y-80930315D01*
X145753155Y-80877511D01*
X145742331Y-80816272D01*
X145743818Y-80797371D01*
X145170234Y-80223787D01*
X145212292Y-80212518D01*
X145337708Y-80140110D01*
X145440110Y-80037708D01*
X145512518Y-79912292D01*
X145523787Y-79870234D01*
X146097371Y-80443818D01*
X146097372Y-80443818D01*
X146133240Y-80394451D01*
X146227924Y-80208627D01*
X146292373Y-80010272D01*
X146325000Y-79804279D01*
X146325000Y-79595720D01*
X146292373Y-79389727D01*
X146227924Y-79191372D01*
X146133244Y-79005556D01*
X146133236Y-79005543D01*
X146097372Y-78956180D01*
X146097371Y-78956179D01*
X145523787Y-79529764D01*
X145512518Y-79487708D01*
X145440110Y-79362292D01*
X145337708Y-79259890D01*
X145212292Y-79187482D01*
X145170233Y-79176212D01*
X145743819Y-78602627D01*
X145694451Y-78566759D01*
X145508627Y-78472075D01*
X145310272Y-78407626D01*
X145104279Y-78375000D01*
X144895721Y-78375000D01*
X144689727Y-78407626D01*
X144491372Y-78472075D01*
X144305552Y-78566757D01*
X144256180Y-78602627D01*
X144829766Y-79176212D01*
X144787708Y-79187482D01*
X144662292Y-79259890D01*
X144559890Y-79362292D01*
X144487482Y-79487708D01*
X144476212Y-79529765D01*
X143902627Y-78956180D01*
X143866757Y-79005552D01*
X143772075Y-79191372D01*
X143707626Y-79389727D01*
X143675000Y-79595720D01*
X143675000Y-79804279D01*
X143707626Y-80010272D01*
X143772075Y-80208627D01*
X143866759Y-80394451D01*
X143902627Y-80443818D01*
X143902627Y-80443819D01*
X144476212Y-79870234D01*
X144487482Y-79912292D01*
X144559890Y-80037708D01*
X144662292Y-80140110D01*
X144787708Y-80212518D01*
X144829765Y-80223787D01*
X144256179Y-80797371D01*
X144257667Y-80816272D01*
X144243302Y-80884649D01*
X144194251Y-80934406D01*
X144134049Y-80950000D01*
X136865949Y-80950000D01*
X136798910Y-80930315D01*
X136753155Y-80877511D01*
X136742331Y-80816272D01*
X136743818Y-80797371D01*
X136170234Y-80223787D01*
X136212292Y-80212518D01*
X136337708Y-80140110D01*
X136440110Y-80037708D01*
X136512518Y-79912292D01*
X136523787Y-79870234D01*
X137097371Y-80443818D01*
X137097372Y-80443818D01*
X137133240Y-80394451D01*
X137227924Y-80208627D01*
X137292373Y-80010272D01*
X137325000Y-79804279D01*
X137325000Y-79595720D01*
X137292373Y-79389727D01*
X137227924Y-79191372D01*
X137133244Y-79005556D01*
X137133236Y-79005543D01*
X137097372Y-78956180D01*
X137097371Y-78956179D01*
X136523787Y-79529764D01*
X136512518Y-79487708D01*
X136440110Y-79362292D01*
X136337708Y-79259890D01*
X136212292Y-79187482D01*
X136170233Y-79176212D01*
X136743819Y-78602627D01*
X136694451Y-78566759D01*
X136508627Y-78472075D01*
X136310272Y-78407626D01*
X136104279Y-78375000D01*
X135895721Y-78375000D01*
X135689727Y-78407626D01*
X135491372Y-78472075D01*
X135305552Y-78566757D01*
X135256180Y-78602627D01*
X135829766Y-79176212D01*
X135787708Y-79187482D01*
X135662292Y-79259890D01*
X135559890Y-79362292D01*
X135487482Y-79487708D01*
X135476212Y-79529765D01*
X134902627Y-78956180D01*
X134866757Y-79005552D01*
X134772075Y-79191372D01*
X134707626Y-79389727D01*
X134675000Y-79595720D01*
X134675000Y-79804279D01*
X134707626Y-80010272D01*
X134772075Y-80208627D01*
X134866759Y-80394451D01*
X134902627Y-80443818D01*
X134902627Y-80443819D01*
X135476212Y-79870234D01*
X135487482Y-79912292D01*
X135559890Y-80037708D01*
X135662292Y-80140110D01*
X135787708Y-80212518D01*
X135829765Y-80223787D01*
X135256179Y-80797371D01*
X135257667Y-80816272D01*
X135243302Y-80884649D01*
X135194251Y-80934406D01*
X135134049Y-80950000D01*
X134315212Y-80950000D01*
X134248173Y-80930315D01*
X134212109Y-80894890D01*
X134211883Y-80894552D01*
X134199464Y-80875965D01*
X134199462Y-80875962D01*
X134074038Y-80750538D01*
X134074034Y-80750535D01*
X133926553Y-80651990D01*
X133926540Y-80651983D01*
X133762667Y-80584106D01*
X133762658Y-80584103D01*
X133588694Y-80549500D01*
X133588691Y-80549500D01*
X133411309Y-80549500D01*
X133411306Y-80549500D01*
X133237341Y-80584103D01*
X133237332Y-80584106D01*
X133073459Y-80651983D01*
X133073446Y-80651990D01*
X132925965Y-80750535D01*
X132925961Y-80750538D01*
X132800537Y-80875962D01*
X132794733Y-80884649D01*
X132788117Y-80894552D01*
X132787891Y-80894890D01*
X132734279Y-80939695D01*
X132684788Y-80950000D01*
X131865949Y-80950000D01*
X131798910Y-80930315D01*
X131753155Y-80877511D01*
X131742331Y-80816272D01*
X131743818Y-80797371D01*
X131170234Y-80223787D01*
X131212292Y-80212518D01*
X131337708Y-80140110D01*
X131440110Y-80037708D01*
X131512518Y-79912292D01*
X131523787Y-79870234D01*
X132097371Y-80443818D01*
X132097372Y-80443818D01*
X132133240Y-80394451D01*
X132227924Y-80208627D01*
X132292373Y-80010272D01*
X132325000Y-79804279D01*
X132325000Y-79595720D01*
X132292373Y-79389727D01*
X132227924Y-79191372D01*
X132133244Y-79005556D01*
X132133236Y-79005543D01*
X132097372Y-78956180D01*
X132097371Y-78956179D01*
X131523787Y-79529764D01*
X131512518Y-79487708D01*
X131440110Y-79362292D01*
X131337708Y-79259890D01*
X131212292Y-79187482D01*
X131170233Y-79176212D01*
X131743819Y-78602627D01*
X131694451Y-78566759D01*
X131508627Y-78472075D01*
X131310272Y-78407626D01*
X131104279Y-78375000D01*
X130895721Y-78375000D01*
X130689727Y-78407626D01*
X130491372Y-78472075D01*
X130305552Y-78566757D01*
X130256180Y-78602627D01*
X130829766Y-79176212D01*
X130787708Y-79187482D01*
X130662292Y-79259890D01*
X130559890Y-79362292D01*
X130487482Y-79487708D01*
X130476212Y-79529765D01*
X129902627Y-78956180D01*
X129866757Y-79005552D01*
X129772075Y-79191372D01*
X129741931Y-79284148D01*
X129702493Y-79341823D01*
X129638134Y-79369021D01*
X129569288Y-79357106D01*
X129517812Y-79309862D01*
X129500000Y-79245829D01*
X129500000Y-78501362D01*
X129519685Y-78434323D01*
X129536319Y-78413681D01*
X129963681Y-77986319D01*
X130025004Y-77952834D01*
X130051362Y-77950000D01*
X181875500Y-77950000D01*
X181942539Y-77969685D01*
G37*
%TD.AperFunction*%
%TA.AperFunction,Conductor*%
G36*
X130487482Y-93912292D02*
G01*
X130559890Y-94037708D01*
X130662292Y-94140110D01*
X130787708Y-94212518D01*
X130829765Y-94223787D01*
X130256179Y-94797371D01*
X130257667Y-94816272D01*
X130243302Y-94884649D01*
X130194251Y-94934406D01*
X130134049Y-94950000D01*
X129624000Y-94950000D01*
X129556961Y-94930315D01*
X129511206Y-94877511D01*
X129500000Y-94826000D01*
X129500000Y-94154170D01*
X129519685Y-94087131D01*
X129572489Y-94041376D01*
X129641647Y-94031432D01*
X129705203Y-94060457D01*
X129741931Y-94115852D01*
X129772075Y-94208625D01*
X129866759Y-94394451D01*
X129902627Y-94443818D01*
X129902627Y-94443819D01*
X130476212Y-93870234D01*
X130487482Y-93912292D01*
G37*
%TD.AperFunction*%
%TA.AperFunction,Conductor*%
G36*
X130487482Y-79912292D02*
G01*
X130559890Y-80037708D01*
X130662292Y-80140110D01*
X130787708Y-80212518D01*
X130829765Y-80223787D01*
X130256179Y-80797371D01*
X130257667Y-80816272D01*
X130254807Y-80829881D01*
X130256787Y-80843647D01*
X130247766Y-80863400D01*
X130243302Y-80884649D01*
X130233539Y-80894552D01*
X130227762Y-80907203D01*
X130209495Y-80918942D01*
X130194251Y-80934406D01*
X130179478Y-80938232D01*
X130168984Y-80944977D01*
X130134049Y-80950000D01*
X130051362Y-80950000D01*
X129984323Y-80930315D01*
X129963681Y-80913681D01*
X129536319Y-80486319D01*
X129502834Y-80424996D01*
X129500000Y-80398638D01*
X129500000Y-80154170D01*
X129519685Y-80087131D01*
X129572489Y-80041376D01*
X129641647Y-80031432D01*
X129705203Y-80060457D01*
X129741931Y-80115852D01*
X129772075Y-80208625D01*
X129866759Y-80394451D01*
X129902627Y-80443818D01*
X129902627Y-80443819D01*
X130476212Y-79870234D01*
X130487482Y-79912292D01*
G37*
%TD.AperFunction*%
%TD*%
M02*
