%TF.GenerationSoftware,KiCad,Pcbnew,9.0.2*%
%TF.CreationDate,2025-05-28T22:42:43-04:00*%
%TF.ProjectId,DAQHat Rev A,44415148-6174-4205-9265-7620412e6b69,rev?*%
%TF.SameCoordinates,Original*%
%TF.FileFunction,Legend,Bot*%
%TF.FilePolarity,Positive*%
%FSLAX46Y46*%
G04 Gerber Fmt 4.6, Leading zero omitted, Abs format (unit mm)*
G04 Created by KiCad (PCBNEW 9.0.2) date 2025-05-28 22:42:43*
%MOMM*%
%LPD*%
G01*
G04 APERTURE LIST*
%ADD10C,0.120000*%
G04 APERTURE END LIST*
D10*
%TO.C,R13*%
X166265000Y-99677064D02*
X166265000Y-99222936D01*
X167735000Y-99677064D02*
X167735000Y-99222936D01*
%TO.C,R9*%
X138765000Y-113177064D02*
X138765000Y-112722936D01*
X140235000Y-113177064D02*
X140235000Y-112722936D01*
%TO.C,R1*%
X123765000Y-113177064D02*
X123765000Y-112722936D01*
X125235000Y-113177064D02*
X125235000Y-112722936D01*
%TO.C,R15*%
X169265000Y-99677064D02*
X169265000Y-99222936D01*
X170735000Y-99677064D02*
X170735000Y-99222936D01*
%TO.C,R12*%
X166265000Y-85177064D02*
X166265000Y-84722936D01*
X167735000Y-85177064D02*
X167735000Y-84722936D01*
%TO.C,R3*%
X128765000Y-113177064D02*
X128765000Y-112722936D01*
X130235000Y-113177064D02*
X130235000Y-112722936D01*
%TO.C,R11*%
X152265000Y-99177064D02*
X152265000Y-98722936D01*
X153735000Y-99177064D02*
X153735000Y-98722936D01*
%TO.C,R4*%
X131265000Y-113177064D02*
X131265000Y-112722936D01*
X132735000Y-113177064D02*
X132735000Y-112722936D01*
%TO.C,R10*%
X152265000Y-85177064D02*
X152265000Y-84722936D01*
X153735000Y-85177064D02*
X153735000Y-84722936D01*
%TO.C,R14*%
X169265000Y-85177064D02*
X169265000Y-84722936D01*
X170735000Y-85177064D02*
X170735000Y-84722936D01*
%TO.C,R16*%
X141265000Y-113177064D02*
X141265000Y-112722936D01*
X142735000Y-113177064D02*
X142735000Y-112722936D01*
%TO.C,J2*%
X124040000Y-70850000D02*
X124040000Y-73450000D01*
X124040000Y-70850000D02*
X174960000Y-70850000D01*
X124040000Y-73450000D02*
X126640000Y-73450000D01*
X124040000Y-74720000D02*
X124040000Y-76050000D01*
X124040000Y-76050000D02*
X125370000Y-76050000D01*
X126640000Y-73450000D02*
X126640000Y-76050000D01*
X126640000Y-76050000D02*
X174960000Y-76050000D01*
X174960000Y-70850000D02*
X174960000Y-76050000D01*
%TO.C,R7*%
X138265000Y-85177064D02*
X138265000Y-84722936D01*
X139735000Y-85177064D02*
X139735000Y-84722936D01*
%TO.C,R6*%
X136265000Y-113177064D02*
X136265000Y-112722936D01*
X137735000Y-113177064D02*
X137735000Y-112722936D01*
%TO.C,R2*%
X126265000Y-113177064D02*
X126265000Y-112722936D01*
X127735000Y-113177064D02*
X127735000Y-112722936D01*
%TO.C,R8*%
X138265000Y-99427064D02*
X138265000Y-98972936D01*
X139735000Y-99427064D02*
X139735000Y-98972936D01*
%TO.C,R5*%
X133765000Y-113177064D02*
X133765000Y-112722936D01*
X135235000Y-113177064D02*
X135235000Y-112722936D01*
%TD*%
M02*
