%TF.GenerationSoftware,KiCad,Pcbnew,9.0.2*%
%TF.CreationDate,2025-05-28T21:37:55-04:00*%
%TF.ProjectId,DAQHat Rev A,44415148-6174-4205-9265-7620412e6b69,rev?*%
%TF.SameCoordinates,Original*%
%TF.FileFunction,Profile,NP*%
%FSLAX46Y46*%
G04 Gerber Fmt 4.6, Leading zero omitted, Abs format (unit mm)*
G04 Created by KiCad (PCBNEW 9.0.2) date 2025-05-28 21:37:55*
%MOMM*%
%LPD*%
G01*
G04 APERTURE LIST*
%TA.AperFunction,Profile*%
%ADD10C,0.150000*%
%TD*%
%TA.AperFunction,Profile*%
%ADD11C,0.100000*%
%TD*%
G04 APERTURE END LIST*
D10*
X131702416Y-121352011D02*
X131702416Y-123352011D01*
X135205101Y-121355346D02*
G75*
G02*
X135705101Y-120855301I499999J46D01*
G01*
X135205101Y-123355346D02*
X135205101Y-121355346D01*
X124100000Y-93450000D02*
X124100000Y-93950000D01*
X124100000Y-98450000D02*
X124100000Y-104450000D01*
D11*
X182000000Y-122450000D02*
G75*
G02*
X178500000Y-125950000I-3500000J0D01*
G01*
D10*
X142205101Y-123355346D02*
G75*
G02*
X141705101Y-123855301I-500001J46D01*
G01*
X126600000Y-87450000D02*
G75*
G02*
X127100000Y-87950000I0J-500000D01*
G01*
X124600000Y-94450000D02*
G75*
G02*
X124100000Y-93950000I0J500000D01*
G01*
X127100000Y-98450000D02*
X127100000Y-104450000D01*
X135705101Y-120855346D02*
X141705101Y-120855346D01*
D11*
X178500000Y-69450000D02*
G75*
G02*
X182000000Y-72950000I0J-3500000D01*
G01*
D10*
X125202416Y-123852011D02*
G75*
G02*
X124702389Y-123352011I-16J500011D01*
G01*
X127100000Y-93450000D02*
X127100000Y-93950000D01*
X127100000Y-93950000D02*
G75*
G02*
X126600000Y-94450000I-500000J0D01*
G01*
X142205101Y-121355346D02*
X142205101Y-123355346D01*
X126600000Y-97950000D02*
G75*
G02*
X127100000Y-98450000I0J-500000D01*
G01*
X124600000Y-87450000D02*
X126600000Y-87450000D01*
D11*
X178500000Y-69450000D02*
X120500000Y-69450000D01*
D10*
X127100000Y-104450000D02*
G75*
G02*
X126600000Y-104950000I-500000J0D01*
G01*
D11*
X117000000Y-72950000D02*
X117000000Y-122450000D01*
D10*
X135705101Y-123855346D02*
X141705101Y-123855346D01*
X124600000Y-97950000D02*
X126600000Y-97950000D01*
X127100000Y-93450000D02*
X127100000Y-87950000D01*
X125202416Y-123852011D02*
X131202416Y-123852011D01*
X124100000Y-87950000D02*
G75*
G02*
X124600000Y-87450000I500000J0D01*
G01*
X124100000Y-98450000D02*
G75*
G02*
X124600000Y-97950000I500000J0D01*
G01*
D11*
X120500000Y-125950000D02*
G75*
G02*
X117000000Y-122450000I0J3500000D01*
G01*
D10*
X131202416Y-120852011D02*
G75*
G02*
X131702389Y-121352011I-16J-499989D01*
G01*
D11*
X117000000Y-72950000D02*
G75*
G02*
X120500000Y-69450000I3500000J0D01*
G01*
D10*
X124702416Y-123352011D02*
X124702416Y-121352011D01*
X124702416Y-121352011D02*
G75*
G02*
X125202416Y-120852016I499984J11D01*
G01*
X124100000Y-87950000D02*
X124100000Y-93450000D01*
X141705101Y-120855346D02*
G75*
G02*
X142205054Y-121355346I-1J-499954D01*
G01*
D11*
X182000000Y-122450000D02*
X182000000Y-72950000D01*
D10*
X126600000Y-104950000D02*
X124600000Y-104950000D01*
X126600000Y-94450000D02*
X124600000Y-94450000D01*
X124600000Y-104950000D02*
G75*
G02*
X124100000Y-104450000I0J500000D01*
G01*
X131702416Y-123352011D02*
G75*
G02*
X131202416Y-123852016I-500016J11D01*
G01*
D11*
X120500000Y-125950000D02*
X178500000Y-125950000D01*
D10*
X125202416Y-120852011D02*
X131202416Y-120852011D01*
X135705101Y-123855346D02*
G75*
G02*
X135205054Y-123355346I-1J500046D01*
G01*
M02*
